<svg xmlns="http://www.w3.org/2000/svg" fill="none" viewBox="-0.73 -0.73 35 35" id="Add-Circle-Bold--Streamline-Ultimate.svg" height="35" width="35"><desc>Add Circle Bold Streamline Icon: https://streamlinehq.com</desc><path fill="#f376dc" d="M16.77 32.1425c8.48995225 0 15.372499999999999 -6.88254775 15.372499999999999 -15.372499999999999 0 -8.489994175 -6.88254775 -15.372499999999999 -15.372499999999999 -15.372499999999999C8.280005825 1.3975 1.3975 8.280005825 1.3975 16.77c0 8.48995225 6.882505825 15.372499999999999 15.372499999999999 15.372499999999999Z" stroke-width="1.46"></path><path fill="#be59c9" d="M16.77 27.95c3.714555 0.00097825 7.303894 -1.3431372499999998 10.10406475 -3.7837312499999998 2.8003105 -2.440594 4.6222312500000005 -5.81262175 5.12868525 -9.49251875 0.2831335 2.0857687499999997 0.1349985 4.2073135 -0.435461 6.233409 -0.57031975 2.02623525 -1.5506659999999999 3.913559 -2.8802475 5.54528 -1.32972125 1.631721 -2.9803085 2.9730415000000003 -4.84946475 3.9406704999999995 -1.8691562499999999 0.96776875 -3.9171924999999996 1.54130275 -6.017076 1.6851055 -2.10002325 0.14380275 -4.2070899 -0.1450605 -6.190785249999999 -0.84898125 -1.9836953499999999 -0.7037810000000001 -3.801717075 -1.8075265 -5.3414127 -3.24261925 -1.53968165 -1.4352325 -2.768237875 -3.1713467499999997 -3.609532875 -5.1007352500000005 -0.841281025 -1.9293885 -1.2773709 -4.010964749999999 -1.28125595 -6.115879249999999 -0.0009195549999999999 -0.70112575 0.045768125 -1.4014129999999998 0.13975 -2.09625 0.50653785 3.679897 2.3283747499999996 7.0519247499999995 5.128643325 9.49251875C9.466175875 26.60686275 13.055445 27.95097825 16.77 27.95Z" stroke-width="1.46"></path><path stroke="#191919" stroke-linecap="round" stroke-linejoin="round" d="M16.77 32.1425c8.48995225 0 15.372499999999999 -6.88254775 15.372499999999999 -15.372499999999999 0 -8.489994175 -6.88254775 -15.372499999999999 -15.372499999999999 -15.372499999999999C8.280005825 1.3975 1.3975 8.280005825 1.3975 16.77c0 8.48995225 6.882505825 15.372499999999999 15.372499999999999 15.372499999999999Z" stroke-width="1.46"></path><path fill="#ffffff" stroke="#191919" stroke-linecap="round" stroke-linejoin="round" d="M26.5525 15.372499999999999c0 -0.370617 -0.1472965 -0.7261409999999999 -0.40932775 -0.9881722499999999S25.525617 13.975 25.155 13.975h-5.59V8.385c0 -0.37064495000000003 -0.1472965 -0.7260990749999999 -0.40932775 -0.988186225C18.893641 7.1347406 18.538117 6.9875 18.1675 6.9875h-2.795c-0.370617 0 -0.7261409999999999 0.1472406 -0.9881722499999999 0.409313775C14.1222965 7.658900925 13.975 8.014355049999999 13.975 8.385v5.59H8.385c-0.37064495000000003 0 -0.7260990749999999 0.1472965 -0.988186225 0.40932775C7.1347406 14.646358999999999 6.9875 15.001883 6.9875 15.372499999999999v2.795c0 0.370617 0.1472406 0.7261409999999999 0.409313775 0.9881722499999999C7.658900925 19.417703500000002 8.014355049999999 19.564999999999998 8.385 19.564999999999998h5.59v5.59c0 0.370617 0.1472965 0.7261409999999999 0.40932775 0.9881722499999999S15.001883 26.5525 15.372499999999999 26.5525h2.795c0.370617 0 0.7261409999999999 -0.1472965 0.9881722499999999 -0.40932775S19.564999999999998 25.525617 19.564999999999998 25.155v-5.59h5.59c0.370617 0 0.7261409999999999 -0.1472965 0.9881722499999999 -0.40932775S26.5525 18.538117 26.5525 18.1675v-2.795Z" stroke-width="1.46"></path></svg>