<svg xmlns="http://www.w3.org/2000/svg" fill="none" viewBox="0 0 35 35" id="Chat-Bubble-Typing-Oval--Streamline-Flex.svg" height="35" width="35"><desc>Chat Bubble Typing Oval Streamline Icon: https://streamlinehq.com</desc><g id="chat-bubble-typing-oval--messages-message-bubble-typing-chat"><path id="Union" fill="#ff52a1bf" d="M18.125 0.7000000000000001c-5.03 0 -9.1375 1.42 -11.985 4.2675C3.2925 7.817499999999999 1.875 11.924999999999999 1.875 16.9525c0 2.86 0.4575 5.42 1.3800000000000001 7.625l-2.2975000000000003 6.3149999999999995a2.5 2.5 0 0 0 3.14 3.225l6.62 -2.205c2.155 0.8624999999999999 4.640000000000001 1.29 7.407500000000001 1.29 5.03 0 9.135 -1.42 11.9825 -4.2675 2.8499999999999996 -2.8475 4.2675 -6.952500000000001 4.2675 -11.9825s-1.42 -9.1375 -4.2675 -11.985C27.259999999999998 2.12 23.155 0.7025000000000001 18.125 0.7025000000000001Z" stroke-width="1"></path><path id="Ellipse 174" fill="#ffffff" d="M16.0975 17.11a2.1825 2.1825 0 1 0 4.365 0 2.1825 2.1825 0 1 0 -4.365 0" stroke-width="1"></path><path id="Ellipse 175" fill="#ffffff" d="M8.155 17.11a2.1825 2.1825 0 1 0 4.365 0 2.1825 2.1825 0 1 0 -4.365 0" stroke-width="1"></path><path id="Ellipse 176" fill="#ffffff" d="M24.0375 17.11a2.1825 2.1825 0 1 0 4.365 0 2.1825 2.1825 0 1 0 -4.365 0" stroke-width="1"></path></g></svg>