<svg xmlns="http://www.w3.org/2000/svg" fill="none" viewBox="-2.19 -2.19 35 35" id="Search--Streamline-Stickies.svg" height="35" width="35" style="background-color: #ffffff"><desc>Search Streamline Icon: https://streamlinehq.com</desc><path fill="#ff52a1" stroke="#231f20" stroke-miterlimit="10" d="M21.795003 4.4910373230000005c-5.189652000000001 -5.1819719292 -11.515500000000001 -5.757750000000001 -17.296281 0C-1.282059 10.248795000000001 -0.6832568385000001 16.597674 4.498722000000001 21.779649000000003c4.444983000000001 4.444983000000001 9.734436 5.4890550000000005 14.785902000000002 2.080467 0.445266 0.706284 0.9826560000000001 1.3972140000000002 1.6428780000000003 2.2416840000000002 4.798125000000001 6.087861 6.771114000000001 4.191642 8.06085 2.901906 1.289736 -1.289736 3.178278 -3.262725 -2.886552 -8.068527 -0.8291160000000001 -0.6602220000000001 -1.5354 -1.1899350000000002 -2.234007 -1.6428780000000003 3.4162650000000006 -5.0514660000000005 2.372193 -10.348596 -2.0727900000000004 -14.801263677000001Z" stroke-width="0.88"></path><path fill="#ffffff" stroke="#231f20" stroke-miterlimit="10" d="M5.481362646000001 13.135347000000001c0 2.03402115 0.808019604 3.9847468500000005 2.246305554 5.4230328000000005S11.11667985 20.80467 13.150701 20.80467c2.03402115 0 3.9847468500000005 -0.8080042500000001 5.4230328000000005 -2.2462902000000002 1.43828595 -1.43828595 2.2462902000000002 -3.3890116500000005 2.2462902000000002 -5.4230328000000005 0 -2.03402115 -0.8080042500000001 -3.9847468500000005 -2.2462902000000002 -5.4230328000000005 -1.43828595 -1.438278273 -3.3890116500000005 -2.2462902000000002 -5.4230328000000005 -2.2462902000000002 -2.03402115 0 -3.9847468500000005 0.8080119270000001 -5.4230328000000005 2.2462902000000002 -1.43828595 1.43828595 -2.246305554 3.3890116500000005 -2.246305554 5.4230328000000005Z" stroke-width="0.88"></path><path fill="#ffffff" d="M11.361960000000002 8.444700000000001c0.49716252 -0.43213833 1.12782807 -0.68025897 1.7861308200000001 -0.7025990400000001 0.6583795200000001 -0.022340070000000004 1.30439907 0.18232875 1.82973618 0.57976704" stroke-width="0.88"></path><path stroke="#231f20" stroke-linecap="round" stroke-miterlimit="10" d="M11.361960000000002 8.444700000000001c0.49716252 -0.43213833 1.12782807 -0.68025897 1.7861308200000001 -0.7025990400000001 0.6583795200000001 -0.022340070000000004 1.30439907 0.18232875 1.82973618 0.57976704" stroke-width="0.88"></path><path stroke="#ffffff" stroke-linecap="round" stroke-miterlimit="10" d="M15.146721000000001 2.9095753230000003c1.4540238 0.157954275 2.79350676 0.8633630970000001 3.746376 1.972989" stroke-width="0.88"></path></svg>