<svg xmlns="http://www.w3.org/2000/svg" fill="none" viewBox="-0.44 -0.44 35 35" id="Android-Setting--Streamline-Stickies.svg" height="35" width="35"><desc>Android Setting Streamline Icon: https://streamlinehq.com</desc><path fill="#48eeff" stroke="#231f20" stroke-miterlimit="10" d="M25.59 10.54308c-0.1925221 -0.3412853 -0.4659086 -0.6301964 -0.7960196 -0.8413992 -0.330111 -0.21111749999999999 -0.7070517 -0.33812919999999996 -1.0976404 -0.3698608 -0.4049191 -0.0240546 -0.8100940999999999 0.0429912 -1.1856699999999998 0.19619 -0.0044356 -1.1884763699999998 -0.2775662 -2.36054955 -0.7990050999999999 -3.4285396699999997C21.190226 5.0314887399999995 20.4339562 4.0952530000000005 19.499579999999998 3.36082c0.1622406 -0.26338933999999997 0.2803811 -0.55151568 0.34973 -0.853 0.030707999999999996 -0.2176003 0.0007677 -0.43944853999999994 -0.0865795 -0.6411148 -0.0872619 -0.20167479 -0.22851870000000002 -0.37534558999999995 -0.4081605 -0.5019052 -0.18714820000000001 -0.11550473 -0.4027866 -0.17667336 -0.62269 -0.17667336s-0.43554180000000003 0.061168629999999995 -0.62269 0.17667336c-0.2767132 0.22839074999999998 -0.5156385 0.49898794 -0.7079899999999999 0.80182 -1.010805 -0.36780507 -2.0667337 -0.5973473699999999 -3.13904 -0.6824 -1.0827129 -0.07768271 -2.1708849999999997 -0.0030281500000000003 -3.23287 0.22178 -0.1328974 -0.34587444 -0.3200456 -0.6683681499999999 -0.55445 -0.9553591469999999 -0.1584021 -0.15341205 -0.3570658 -0.258853939 -0.5729601 -0.30413714999999997 -0.215809 -0.045283211000000004 -0.44006270000000003 -0.028560145999999998 -0.6468299 0.04823715 -0.206426 0.087857294 -0.38385 0.23206888600000003 -0.5120558999999999 0.416118137 -0.1282912 0.18405180999999998 -0.2020757 0.40049203 -0.2129941 0.62454101 0.0208985 0.30742973 0.08999149999999999 0.60965616 0.20471999999999999 0.8956500000000001 -1.04435349 0.56254497 -1.9485932000000001 1.35308831 -2.64559656 2.31294362C5.39212008 5.70384893 4.92025754 6.80836451 4.70856853 7.975549999999999c-0.34497026 -0.21208138999999998 -0.73220667 -0.34601092 -1.13449 -0.39238 -0.38911301 -0.04052603 -0.782201 0.01618994 -1.14398389 0.16507256 -0.36177435999999996 0.14888262 -0.68093284 0.38526598 -0.92880611 0.68792744 -0.41797 0.4862099999999999 -0.716520853 3.13904 -0.853000853 5.118 -0.13648 1.9789599999999998 -0.3412 4.68297 0 5.22889 0.183845384 0.3556157 0.456262023 0.6578336 0.790953633 0.8774810999999999 0.33469161 0.2196475 0.7203585 0.3493035 1.11976722 0.3764289 0.41064273 0.0275519 0.82213846 -0.039579199999999995 1.2027299999999999 -0.19619 -0.09357410000000001 0.8381578 0.05751779 1.6854426999999998 0.43503 2.43958 0.31665919 0.42197909999999994 0.7681520900000001 0.7230028 1.2795 0.853 -0.11662216 0.9875181 -0.05011375 1.9880018 0.19619 2.95138 0.22128525999999998 0.38717670000000004 0.53490777 0.7137051 0.91293178 0.9503273000000001 0.37802401 0.23662219999999998 0.80871224 0.3760877 1.25368822 0.4059427 0.44196489 0.0464885 0.88856157 -0.0162923 1.30056057 -0.1828832 0.411999 -0.1665909 0.7768271 -0.4318739 1.0622409 -0.7724768 0.3484505 -0.7159229 0.5568384000000001 -1.491897 0.6141599999999999 -2.2860400000000003l1.47569 0.14501 1.47569 0.11089c-0.08248509999999999 0.7906456999999999 -0.012965599999999999 1.5897360999999999 0.20471999999999999 2.3542799999999997 0.22843339999999998 0.3812057 0.5438727999999999 0.7028719999999999 0.9204722999999999 0.9387265 0.3765995 0.23585450000000002 0.8036966 0.3791585 1.2463183 0.4183112 0.442707 0.0390674 0.8883142 -0.027210699999999997 1.3003985 -0.1933751 0.4121696 -0.1661644 0.7790448999999999 -0.42752359999999995 1.0707709 -0.7627526 0.4072222 -0.9072508 0.6442709 -1.8816327000000002 0.69946 -2.87461 0.5304807 -0.0514359 1.0272679 -0.2832813 1.4074499999999999 -0.65681 0.5087292 -0.6746377 0.8055732 -1.485073 0.853 -2.32869 0.3452944 0.2208417 0.7360537 0.360819 1.1430200000000001 0.40943999999999997 0.3904181 0.041199900000000005 0.7850159 -0.0151834 1.1482233 -0.1640319 0.36329269999999997 -0.1488485 0.6839354 -0.3856413 0.9330967000000001 -0.6889681 0.40943999999999997 -0.4862099999999999 0.7165199999999999 -3.14757 0.853 -5.118 0.13648 -1.97043 0.34973 -4.70003 0.04265 -5.245950000000001Z" stroke-width="0.88"></path><path stroke="#231f20" stroke-linecap="round" stroke-miterlimit="10" d="M19.81519 9.65596c-1.9930345 -0.6615015 -4.0689806 -1.0404894 -6.167190000000001 -1.12598559 -2.0858409 -0.26995744 -4.199404299999999 -0.24411154 -6.2780714699999995 0.07679559" stroke-width="0.88"></path><path stroke="#231f20" stroke-linecap="round" stroke-miterlimit="10" d="M4.52090853 10.44925c-0.12794999999999998 0.63975 -0.25589999999999996 1.81689 -0.41797 3.4546499999999996s-0.20471999999999999 2.79784 -0.18766 3.4717100000000003" stroke-width="0.88"></path><path stroke="#231f20" stroke-linecap="round" stroke-miterlimit="10" d="M21.68326 18.919539999999998c0.12794999999999998 -0.65681 0.27296 -1.80836 0.40943999999999997 -3.412 0.13648 -1.60364 0.20471999999999999 -2.79784 0.19619 -3.4717100000000003" stroke-width="0.88"></path><path fill="#ffffff" stroke="#231f20" stroke-linecap="round" stroke-miterlimit="10" d="M9.75832 5.07533294c0 0.13665913 0.0269548 0.27198757999999995 0.0792437 0.39824011 0.0522889 0.12626106 0.1288883 0.24098102999999998 0.22553320000000002 0.33761739999999996 0.09664489999999999 0.09663637 0.2113734 0.17328695 0.33761739999999996 0.22558437999999997 0.126244 0.05229743 0.2616151 0.07921811 0.3982657 0.07921811s0.27202170000000003 -0.02692068 0.3982657 -0.07921811c0.126244 -0.05229743 0.24097249999999998 -0.12894801 0.33761739999999996 -0.22558437999999997 0.09664489999999999 -0.09663637 0.1732443 -0.21135634 0.22553320000000002 -0.33761739999999996 0.0522889 -0.12625253 0.0792437 -0.26158097999999996 0.0792437 -0.39824011 0 -0.13665913 -0.0269548 -0.27198757999999995 -0.0792437 -0.39824011 -0.0522889 -0.12626106 -0.1288883 -0.24098102999999998 -0.22553320000000002 -0.33761739999999996 -0.09664489999999999 -0.09663637 -0.2113734 -0.17328695 -0.33761739999999996 -0.22558437999999997 -0.126244 -0.05229743 -0.2616151 -0.07921811 -0.3982657 -0.07921811s-0.27202170000000003 0.02692068 -0.3982657 0.07921811c-0.126244 0.05229743 -0.24097249999999998 0.12894801 -0.33761739999999996 0.22558437999999997 -0.09664489999999999 0.09663637 -0.1732443 0.21135634 -0.22553320000000002 0.33761739999999996 -0.0522889 0.12625253 -0.0792437 0.26158097999999996 -0.0792437 0.39824011Z" stroke-width="0.88"></path><path fill="#ffffff" stroke="#231f20" stroke-linecap="round" stroke-miterlimit="10" d="M15.985219999999998 5.612731469999999c0 0.13665913 0.0269548 0.27197905 0.0792437 0.39824011 0.0522889 0.12626106 0.1288883 0.24098102999999998 0.22553320000000002 0.33761739999999996 0.09664489999999999 0.09662784 0.2113734 0.17328695 0.33761739999999996 0.22558437999999997 0.126244 0.05229743 0.2616151 0.07921811 0.3982657 0.07921811s0.27202170000000003 -0.02692068 0.3982657 -0.07921811c0.126244 -0.05229743 0.24097249999999998 -0.12895654 0.33761739999999996 -0.22558437999999997 0.09664489999999999 -0.09663637 0.1732443 -0.21135634 0.22553320000000002 -0.33761739999999996 0.0522889 -0.12626106 0.0792437 -0.26158097999999996 0.0792437 -0.39824011 0 -0.13666766 -0.0269548 -0.27198757999999995 -0.0792437 -0.39824864 -0.0522889 -0.12626106 -0.1288883 -0.24098102999999998 -0.22553320000000002 -0.33761739999999996 -0.09664489999999999 -0.09662784 -0.2113734 -0.17328695 -0.33761739999999996 -0.22558437999999997 -0.126244 -0.05229743 -0.2616151 -0.07920958 -0.3982657 -0.07920958s-0.27202170000000003 0.02691215 -0.3982657 0.07920958c-0.126244 0.05229743 -0.24097249999999998 0.12895654 -0.33761739999999996 0.22558437999999997 -0.09664489999999999 0.09663637 -0.1732443 0.21135634 -0.22553320000000002 0.33761739999999996 -0.0522889 0.12626106 -0.0792437 0.26158097999999996 -0.0792437 0.39824864Z" stroke-width="0.88"></path><path stroke="#ffffff" stroke-linecap="round" stroke-miterlimit="10" d="M20.08815 6.54249294c0.5468583 0.63984383 0.8490762 1.4528807799999999 0.853 2.29458706" stroke-width="0.88"></path><path fill="#ff52a1" stroke="#231f20" stroke-miterlimit="10" d="M31.902199999999997 24.737c0.0094683 -0.46036409999999994 -0.027637199999999997 -0.9204722999999999 -0.11089 -1.3733300000000002 -0.0847882 -0.45115170000000004 -0.21043509999999999 -0.8936881000000001 -0.37532 -1.32215 1.4501 -1.8424800000000001 1.12596 -2.559 0.44356 -3.35229 -0.6824 -0.79329 -1.33068 -1.24538 -3.412 -0.13648 -0.7850159 -0.4721355 -1.653967 -0.7879160999999999 -2.559 -0.9297700000000001 -0.853 -2.17515 -1.6462899999999998 -2.2433899999999998 -2.69548 -2.06426 -1.04919 0.17912999999999998 -1.706 0.5117999999999999 -1.80836 2.87461 -0.8001139999999999 0.44671610000000006 -1.5067392 1.0433043 -2.08132 1.75718 -2.31163 -0.32414 -2.77225 0.28149 -3.13904 1.29656 -0.36679 1.01507 -0.41797 1.76571 1.57805 3.00256 -0.009382999999999999 0.4575492 0.0277225 0.9148425 0.11089 1.3648 0.0836793 0.4514076 0.2093262 0.8941146 0.37532 1.32215 -1.4501 1.8510099999999998 -1.12596 2.559 -0.44356 3.36082s1.33068 1.24538 3.412 0.12794999999999998c0.7833099 0.47580339999999993 1.6530287 0.7917546 2.559 0.9297700000000001 0.853 2.18368 1.6462899999999998 2.25192 2.69548 2.06426 1.04919 -0.18766 1.706 -0.5117999999999999 1.80836 -2.8660799999999997 0.8048055 -0.45447840000000006 1.5121130999999999 -1.0631792 2.08132 -1.7913000000000001 2.32016 0.32414 2.77225 -0.29002 3.13904 -1.30509 0.36679 -1.01507 0.4265 -1.75718 -1.57805 -2.9599100000000003Z" stroke-width="0.88"></path><path fill="#ffffff" stroke="#231f20" stroke-miterlimit="10" d="M21.359119999999997 24.57493c0 0.9207281999999999 0.3657664 1.8037537999999997 1.0168613 2.4548487 0.6510948999999999 0.6510948999999999 1.5341205 1.0168613 2.4548487 1.0168613s1.8038391 -0.3657664 2.4548487 -1.0168613c0.6510948999999999 -0.6510948999999999 1.0168613 -1.5341205 1.0168613 -2.4548487s-0.3657664 -1.8038391 -1.0168613 -2.4548487c-0.6510096 -0.6510948999999999 -1.5341205 -1.0168613 -2.4548487 -1.0168613s-1.8037537999999997 0.3657664 -2.4548487 1.0168613c-0.6510948999999999 0.6510096 -1.0168613 1.5341205 -1.0168613 2.4548487Z" stroke-width="0.88"></path><path stroke="#ffffff" stroke-linecap="round" stroke-linejoin="round" d="M26.31505 19.13279c0.765994 0.16479960000000002 1.489338 0.48723360000000004 2.12397 0.9468300000000001 0.2274098 -0.1459483 0.4671028 -0.2715099 0.7165199999999999 -0.37532" stroke-width="0.88"></path><path fill="#ffe236" stroke="#231f20" stroke-miterlimit="10" d="M26.678342699999998 8.092632779999999c0.0780495 0.26474560999999996 0.3632074 0.45664502 0.7927782 0.53350032 0.42957080000000003 0.0768553 0.9683256 0.032414 1.497868 -0.12361675999999999 0.5294571 -0.15603929 1.0062841 -0.41085597999999995 1.3254767 -0.70839091 0.3192779 -0.29754346 0.4547343 -0.61342642 0.3767701 -0.8781720299999999 -0.0386409 -0.13108904000000002 -0.1285471 -0.24567252999999997 -0.26460059999999996 -0.33721649 -0.13596819999999998 -0.09154396 -0.3154394 -0.15824855999999998 -0.5281775999999999 -0.19630942 -0.21273820000000002 -0.03806086 -0.45447840000000006 -0.04673587 -0.7114872999999999 -0.025513229999999998 -0.2570089 0.021214109999999998 -0.5241685 0.07189937 -0.7863807 0.14916411 -0.2621269 0.07725620999999999 -0.5141884 0.17958209 -0.7415982 0.30112606 -0.2274098 0.12155249999999998 -0.42581759999999996 0.25993468999999997 -0.5839637999999999 0.40726484999999996 -0.15806089999999998 0.14732163 -0.2726188 0.30069956 -0.33727619999999997 0.45138201 -0.0646574 0.15067392 -0.0780495 0.29569245 -0.039408599999999995 0.42678149000000004Z" stroke-width="0.88"></path><path fill="#ffe236" stroke="#231f20" stroke-miterlimit="10" d="M24.955709199999998 4.9834733700000005c0.1858687 0.20403759999999999 0.5262157 0.2520615 0.9462328999999999 0.1334945 0.4200172 -0.118567 0.8851581000000001 -0.3940007 1.2932333 -0.76572104 0.40807519999999997 -0.37171181 0.7256471 -0.80926669 0.8827696999999999 -1.21638653 0.1571226 -0.40711983999999996 0.1410009 -0.7504694 -0.0448678 -0.954507 -0.1858687 -0.20404613 -0.5262157 -0.2520615 -0.9461476 -0.13350303 -0.4200172 0.118567 -0.8852434 0.39400923 -1.2933185999999999 0.76572104 -0.40807519999999997 0.37172034 -0.7255618 0.80926669 -0.8826843999999999 1.21638653 -0.15720789999999998 0.40711983999999996 -0.1410009 0.7504694 0.044782499999999996 0.95451553Z" stroke-width="0.88"></path><path fill="#ffe236" stroke="#231f20" stroke-linecap="round" stroke-miterlimit="10" d="M28.746100000000002 12.63293c0 0.3484505 0.1384419 0.6825706 0.38478829999999997 0.928917 0.2463464 0.2463464 0.5804665 0.384703 0.9288316999999999 0.384703s0.6825706 -0.1383566 0.928917 -0.384703c0.2463464 -0.2463464 0.384703 -0.5804665 0.384703 -0.928917 0 -0.3483652 -0.1383566 -0.6824853 -0.384703 -0.9288316999999999 -0.2463464 -0.2463464 -0.5805518 -0.38478829999999997 -0.928917 -0.38478829999999997s-0.6824853 0.1384419 -0.9288316999999999 0.38478829999999997c-0.2463464 0.2463464 -0.38478829999999997 0.5804665 -0.38478829999999997 0.9288316999999999Z" stroke-width="0.88"></path></svg>