<svg xmlns="http://www.w3.org/2000/svg" fill="none" viewBox="-0.5 -0.5 35 35" id="Graph-Pie--Streamline-Stickies.svg" height="35" width="35"><desc>Graph Pie Streamline Icon: https://streamlinehq.com</desc><path fill="#ff52a1" stroke="#231f20" stroke-miterlimit="10" d="M29.75 18.3005c0.15708 0.0065450000000000005 0.31127 0.044115 0.45373 0.11058499999999999 0.14246 0.06647 0.270385 0.160565 0.376295 0.27676 0.105825 0.11610999999999999 0.18767999999999999 0.252195 0.24072 0.40018 0.05304 0.147985 0.076245 0.30498 0.068255 0.46197499999999997 -0.442 8.5 -5.5165 14.016499999999999 -15.214999999999998 14.016499999999999C5.508 33.574999999999996 0.425 27.4805 0.425 18.325999999999997 0.425 9.5455 5.1 3.570017 14.45 3.111017c0.15708 -0.01037 0.31466999999999995 0.011219999999999999 0.46325 0.06347799999999999 0.148495 0.052258 0.28492 0.134096 0.40086 0.24056699999999998 0.116025 0.1064625 0.20926999999999998 0.235348 0.27404 0.378862 0.06477000000000001 0.14351399999999997 0.099705 0.298673 0.10285 0.4560929999999999 0 2.601 0.0935 9.009983 0 14.058983 4.709 -0.17 11.3645 -0.059500000000000004 14.059 -0.0085Z" stroke-width="1"></path><path fill="#ffe236" stroke="#231f20" stroke-linejoin="round" d="M33.574999999999996 13.6595C33.15 5.9925085000000005 28.738500000000002 0.8500085000000001 20.2895 0.42500594999999997c-0.148665 -0.0045815 -0.296735 0.020896400000000002 -0.435285 0.07490795 -0.13863499999999998 0.0540124 -0.26486 0.13544494999999998 -0.371195 0.23941949999999998 -0.10633499999999999 0.10397455 -0.190655 0.2283491 -0.24777499999999997 0.3656751 -0.05712 0.137326 -0.085935 0.284767 -0.084745 0.4335V14.849499999999999h13.311c0.152575 -0.00085 0.30328 -0.03281 0.44301999999999997 -0.093925 0.13973999999999998 -0.061115 0.265625 -0.15011 0.36983499999999997 -0.26145999999999997 0.10421 -0.11135 0.18462 -0.242845 0.2363 -0.38632500000000003 0.05168 -0.14348 0.07361 -0.296055 0.064345 -0.44828999999999997Z" stroke-width="1"></path><path stroke="#ffffff" stroke-linecap="round" stroke-miterlimit="10" d="M22.423 3.1365c1.4292749999999999 0.19413999999999998 2.7987100000000003 0.6989635 4.012 1.4789999999999999" stroke-width="1"></path><path stroke="#ffffff" stroke-linecap="round" stroke-miterlimit="10" d="M9.7665 6.3155085c0.8859549999999999 -0.36845799999999995 1.8093949999999999 -0.639217 2.754 -0.8075" stroke-width="1"></path></svg>