<svg xmlns="http://www.w3.org/2000/svg" fill="none" viewBox="-0.5 -0.5 35 35" id="Database--Streamline-Plump.svg" height="35" width="35"><desc>Database Streamline Icon: https://streamlinehq.com</desc><g id="database--raid-storage-code-disk-programming-database-array-hard-disc"><path id="Vector" fill="#8fbffa" d="M2.8616666666666664 6.981333333333333C2.8616666666666664 3.7116666666666664 9.191333333333333 1.0625 17 1.0625c7.8086666666666655 0 14.138333333333332 2.6491666666666664 14.138333333333332 5.918833333333333 0 0 0.3825 5.209791666666667 0.3825 11.127916666666666 0 5.918833333333333 -0.3825 8.910124999999999 -0.3825 8.910124999999999 0 3.2682499999999997 -6.329666666666666 5.918125 -14.138333333333332 5.918125 -7.8086666666666655 0 -14.138333333333332 -2.6491666666666664 -14.138333333333332 -5.918125 0 0 -0.3825 -2.9912916666666662 -0.3825 -8.909416666666665 0 -5.918833333333333 0.3825 -11.128625 0.3825 -11.128625Z" stroke-width="1"></path><path id="Vector_2" fill="#2859c5" d="M2.8616666666666664 6.981333333333333C2.8616666666666664 3.7116666666666664 9.190624999999999 1.0625 17 1.0625c7.807958333333333 0 14.138333333333332 2.6491666666666664 14.138333333333332 5.918833333333333 0 3.2682499999999997 -6.330374999999999 5.918125 -14.138333333333332 5.918125 -7.8086666666666655 0 -14.138333333333332 -2.6491666666666664 -14.138333333333332 -5.918125Z" stroke-width="1"></path><path id="Intersect" fill="#2859c5" d="M2.493333333333333 20.027416666666664a129.94304166666666 129.94304166666666 0 0 1 -0.0014166666666666666 -3.8136666666666663c0.15866666666666665 1.2190416666666666 1.3692083333333331 2.6045416666666665 3.9234583333333326 3.7654999999999994C9.068083333333332 21.184833333333334 12.806666666666665 21.958333333333332 16.994333333333334 21.958333333333332c4.187666666666666 0 7.926249999999999 -0.7735 10.579666666666666 -1.979083333333333 2.617291666666666 -1.1899999999999997 3.8235833333333327 -2.6151666666666666 3.9333749999999994 -3.8561666666666663a146.95224999999996 146.95224999999996 0 0 1 0 3.8944166666666664c-0.8535416666666666 0.7402083333333332 -1.9068333333333332 1.3741666666666665 -3.054333333333333 1.8962083333333333C25.465999999999998 23.27158333333333 21.413625 24.083333333333332 16.994333333333334 24.083333333333332c-4.419291666666666 0 -8.471666666666666 -0.8117499999999999 -11.458708333333332 -2.169625 -1.1418333333333333 -0.5192083333333333 -2.1908749999999997 -1.1503333333333332 -3.0422916666666664 -1.8862916666666663Z" stroke-width="1"></path><path id="Subtract" fill="#2859c5" fill-rule="evenodd" d="M6.026499999999999 28.33333333333333a1.4166666666666665 1.4166666666666665 0 1 0 0 -2.833333333333333 1.4166666666666665 1.4166666666666665 0 0 0 0 2.833333333333333Z" clip-rule="evenodd" stroke-width="1"></path><path id="Subtract_2" fill="#2859c5" d="M10.630666666666665 29.572916666666664a1.4166666666666665 1.4166666666666665 0 1 0 0 -2.833333333333333 1.4166666666666665 1.4166666666666665 0 0 0 0 2.833333333333333Z" stroke-width="1"></path><path id="Subtract_3" fill="#2859c5" fill-rule="evenodd" d="M4.609833333333333 15.937499999999998a1.4166666666666665 1.4166666666666665 0 1 1 2.833333333333333 0 1.4166666666666665 1.4166666666666665 0 0 1 -2.833333333333333 0Z" clip-rule="evenodd" stroke-width="1"></path><path id="Subtract_4" fill="#2859c5" d="M10.630666666666665 18.593749999999996a1.4166666666666665 1.4166666666666665 0 1 0 0 -2.833333333333333 1.4166666666666665 1.4166666666666665 0 0 0 0 2.833333333333333Z" stroke-width="1"></path></g></svg>